# xmcd
#
# Track frame offsets:
#	150
#	15795
#	33413
#	44275
#	62366
#	82227
#	102537
#	122380
#	141083
#	157469
#	176868
#	197652
#	217586
#	233453
#
# Disc length: 3453 seconds
#
# Revision: 1
# Processed by: cddbd v1.5.1PL0 Copyright (c) Steve Scherf et al.
# Submitted via: audiograbber 1.83.01
#
DISCID=b30d7b0e
DTITLE=Faith Hill - Fireflies
DYEAR=2005
DGENRE=Country
TTITLE0=Sunshine and Summertime
TTITLE1=Mississippi Girl
TTITLE2=Dearly Beloved
TTITLE3=I Ain't Gonna Take It Anymore
TTITLE4=Stealing Kisses
TTITLE5=Fireflies
TTITLE6=Like We Never Loved At All
TTITLE7=I Want You
TTITLE8=The Lucky One
TTITLE9=If You Ask
TTITLE10=We've Got Nothing But Love to Prove
TTITLE11=You Stay With Me
TTITLE12=Wish for You
TTITLE13=Paris
EXTD=
EXTT0=
EXTT1=
EXTT2=
EXTT3=
EXTT4=
EXTT5=
EXTT6=
EXTT7=
EXTT8=
EXTT9=
EXTT10=
EXTT11=
EXTT12=
EXTT13=
PLAYORDER=
